HIERARCHY
ROOT mixamorig:Hips
{
	OFFSET -0.000008 104.274872 1.554316
	CHANNELS 6 Xposition Yposition Zposition Xrotation Yrotation Zrotation
	JOINT mixamorig:Spine
	{
		OFFSET -0.000005 10.181595 0.131519
		CHANNELS 6 Xposition Yposition Zposition Xrotation Yrotation Zrotation
		JOINT mixamorig:Spine1
		{
			OFFSET -0.000000 9.893959 -1.470707
			CHANNELS 6 Xposition Yposition Zposition Xrotation Yrotation Zrotation
			JOINT mixamorig:Spine2
			{
				OFFSET -0.000000 9.220757 -1.370641
				CHANNELS 6 Xposition Yposition Zposition Xrotation Yrotation Zrotation
				JOINT mixamorig:Neck
				{
					OFFSET 0.000001 16.740417 -2.049036
					CHANNELS 6 Xposition Yposition Zposition Xrotation Yrotation Zrotation
					JOINT mixamorig:Head
					{
						OFFSET 0.000000 9.617874 1.685006
						CHANNELS 6 Xposition Yposition Zposition Xrotation Yrotation Zrotation
						JOINT mixamorig:HeadTop_End
						{
							OFFSET 0.000002 22.037354 7.501101
							CHANNELS 6 Xposition Yposition Zposition Xrotation Yrotation Zrotation
							End Site
							{
								OFFSET 0.000168 2310.654297 -282.823242
							}
						}
					}
				}
				JOINT mixamorig:RightShoulder
				{
					OFFSET -4.569970 11.014908 -2.160885
					CHANNELS 6 Xposition Yposition Zposition Xrotation Yrotation Zrotation
					JOINT mixamorig:RightArm
					{
						OFFSET -10.592851 -0.524811 -2.232101
						CHANNELS 6 Xposition Yposition Zposition Xrotation Yrotation Zrotation
						JOINT mixamorig:RightForeArm
						{
							OFFSET -27.841511 0.000031 -0.000004
							CHANNELS 6 Xposition Yposition Zposition Xrotation Yrotation Zrotation
							JOINT mixamorig:RightHand
							{
								OFFSET -28.328831 -0.000015 0.000015
								CHANNELS 6 Xposition Yposition Zposition Xrotation Yrotation Zrotation
								JOINT mixamorig:RightHandThumb1
								{
									OFFSET -2.464806 -1.573990 2.681852
									CHANNELS 6 Xposition Yposition Zposition Xrotation Yrotation Zrotation
									JOINT mixamorig:RightHandThumb2
									{
										OFFSET -3.215179 -1.872803 1.924282
										CHANNELS 6 Xposition Yposition Zposition Xrotation Yrotation Zrotation
										JOINT mixamorig:RightHandThumb3
										{
											OFFSET -2.654831 -1.527969 1.512609
											CHANNELS 6 Xposition Yposition Zposition Xrotation Yrotation Zrotation
											JOINT mixamorig:RightHandThumb4
											{
												OFFSET -2.018814 -1.152008 1.108052
												CHANNELS 6 Xposition Yposition Zposition Xrotation Yrotation Zrotation
												End Site
												{
													OFFSET -188.809540 -114.533607 132.431396
												}
											}
										}
									}
								}
								JOINT mixamorig:RightHandIndex1
								{
									OFFSET -9.108284 -0.517868 2.259835
									CHANNELS 6 Xposition Yposition Zposition Xrotation Yrotation Zrotation
									JOINT mixamorig:RightHandIndex2
									{
										OFFSET -3.699989 0.000000 0.001215
										CHANNELS 6 Xposition Yposition Zposition Xrotation Yrotation Zrotation
										JOINT mixamorig:RightHandIndex3
										{
											OFFSET -2.850006 0.000031 -0.000522
											CHANNELS 6 Xposition Yposition Zposition Xrotation Yrotation Zrotation
											JOINT mixamorig:RightHandIndex4
											{
												OFFSET -2.772186 -0.000015 -0.000020
												CHANNELS 6 Xposition Yposition Zposition Xrotation Yrotation Zrotation
												End Site
												{
													OFFSET -277.218445 0.000000 -0.050231
												}
											}
										}
									}
								}
								JOINT mixamorig:RightHandMiddle1
								{
									OFFSET -9.532516 -0.000031 -0.000023
									CHANNELS 6 Xposition Yposition Zposition Xrotation Yrotation Zrotation
									JOINT mixamorig:RightHandMiddle2
									{
										OFFSET -3.700005 -0.000015 0.003713
										CHANNELS 6 Xposition Yposition Zposition Xrotation Yrotation Zrotation
										JOINT mixamorig:RightHandMiddle3
										{
											OFFSET -2.949974 0.000015 -0.002054
											CHANNELS 6 Xposition Yposition Zposition Xrotation Yrotation Zrotation
											JOINT mixamorig:RightHandMiddle4
											{
												OFFSET -2.946640 0.000000 -0.000156
												CHANNELS 6 Xposition Yposition Zposition Xrotation Yrotation Zrotation
												End Site
												{
													OFFSET -294.664337 0.000000 -0.113670
												}
											}
										}
									}
								}
								JOINT mixamorig:RightHandRing1
								{
									OFFSET -9.103600 -0.043076 -1.865134
									CHANNELS 6 Xposition Yposition Zposition Xrotation Yrotation Zrotation
									JOINT mixamorig:RightHandRing2
									{
										OFFSET -3.379288 0.000000 -0.001055
										CHANNELS 6 Xposition Yposition Zposition Xrotation Yrotation Zrotation
										JOINT mixamorig:RightHandRing3
										{
											OFFSET -2.889687 -0.000015 0.000379
											CHANNELS 6 Xposition Yposition Zposition Xrotation Yrotation Zrotation
											JOINT mixamorig:RightHandRing4
											{
												OFFSET -2.638809 -0.000015 0.000941
												CHANNELS 6 Xposition Yposition Zposition Xrotation Yrotation Zrotation
												End Site
												{
													OFFSET -263.880371 0.000000 0.516020
												}
											}
										}
									}
								}
								JOINT mixamorig:RightHandPinky1
								{
									OFFSET -8.076683 -0.486710 -3.806280
									CHANNELS 6 Xposition Yposition Zposition Xrotation Yrotation Zrotation
									JOINT mixamorig:RightHandPinky2
									{
										OFFSET -3.600014 -0.000015 -0.003747
										CHANNELS 6 Xposition Yposition Zposition Xrotation Yrotation Zrotation
										JOINT mixamorig:RightHandPinky3
										{
											OFFSET -2.099983 0.000000 -0.005739
											CHANNELS 6 Xposition Yposition Zposition Xrotation Yrotation Zrotation
											JOINT mixamorig:RightHandPinky4
											{
												OFFSET -2.115768 -0.000031 -0.003680
												CHANNELS 6 Xposition Yposition Zposition Xrotation Yrotation Zrotation
												End Site
												{
													OFFSET -211.577087 0.000000 -0.350686
												}
											}
										}
									}
								}
							}
						}
					}
				}
				JOINT mixamorig:LeftShoulder
				{
					OFFSET 4.570447 11.014725 -2.160855
					CHANNELS 6 Xposition Yposition Zposition Xrotation Yrotation Zrotation
					JOINT mixamorig:LeftArm
					{
						OFFSET 10.592371 -0.524597 -2.232119
						CHANNELS 6 Xposition Yposition Zposition Xrotation Yrotation Zrotation
						JOINT mixamorig:LeftForeArm
						{
							OFFSET 27.841532 -0.000031 0.000026
							CHANNELS 6 Xposition Yposition Zposition Xrotation Yrotation Zrotation
							JOINT mixamorig:LeftHand
							{
								OFFSET 28.328846 -0.000061 0.000022
								CHANNELS 6 Xposition Yposition Zposition Xrotation Yrotation Zrotation
								JOINT mixamorig:LeftHandThumb1
								{
									OFFSET 2.466141 -1.576172 2.681732
									CHANNELS 6 Xposition Yposition Zposition Xrotation Yrotation Zrotation
									JOINT mixamorig:LeftHandThumb2
									{
										OFFSET 3.217812 -1.872070 1.916482
										CHANNELS 6 Xposition Yposition Zposition Xrotation Yrotation Zrotation
										JOINT mixamorig:LeftHandThumb3
										{
											OFFSET 2.656029 -1.528778 1.514513
											CHANNELS 6 Xposition Yposition Zposition Xrotation Yrotation Zrotation
											JOINT mixamorig:LeftHandThumb4
											{
												OFFSET 2.020889 -1.154053 1.115139
												CHANNELS 6 Xposition Yposition Zposition Xrotation Yrotation Zrotation
												End Site
												{
													OFFSET 190.885437 -115.081749 130.048782
												}
											}
										}
									}
								}
								JOINT mixamorig:LeftHandIndex1
								{
									OFFSET 9.109314 -0.518021 2.259871
									CHANNELS 6 Xposition Yposition Zposition Xrotation Yrotation Zrotation
									JOINT mixamorig:LeftHandIndex2
									{
										OFFSET 3.699989 0.000000 -0.000322
										CHANNELS 6 Xposition Yposition Zposition Xrotation Yrotation Zrotation
										JOINT mixamorig:LeftHandIndex3
										{
											OFFSET 2.850006 0.000000 0.000352
											CHANNELS 6 Xposition Yposition Zposition Xrotation Yrotation Zrotation
											JOINT mixamorig:LeftHandIndex4
											{
												OFFSET 2.774864 -0.000031 -0.000027
												CHANNELS 6 Xposition Yposition Zposition Xrotation Yrotation Zrotation
												End Site
												{
													OFFSET 277.486267 0.000000 -0.009857
												}
											}
										}
									}
								}
								JOINT mixamorig:LeftHandMiddle1
								{
									OFFSET 9.533394 0.000061 0.000044
									CHANNELS 6 Xposition Yposition Zposition Xrotation Yrotation Zrotation
									JOINT mixamorig:LeftHandMiddle2
									{
										OFFSET 3.699989 -0.000015 -0.000231
										CHANNELS 6 Xposition Yposition Zposition Xrotation Yrotation Zrotation
										JOINT mixamorig:LeftHandMiddle3
										{
											OFFSET 2.949997 -0.000015 -0.000059
											CHANNELS 6 Xposition Yposition Zposition Xrotation Yrotation Zrotation
											JOINT mixamorig:LeftHandMiddle4
											{
												OFFSET 2.952896 0.000031 0.000063
												CHANNELS 6 Xposition Yposition Zposition Xrotation Yrotation Zrotation
												End Site
												{
													OFFSET 295.289337 0.000000 0.022810
												}
											}
										}
									}
								}
								JOINT mixamorig:LeftHandRing1
								{
									OFFSET 9.104523 -0.042999 -1.865074
									CHANNELS 6 Xposition Yposition Zposition Xrotation Yrotation Zrotation
									JOINT mixamorig:LeftHandRing2
									{
										OFFSET 3.150009 -0.000031 0.000043
										CHANNELS 6 Xposition Yposition Zposition Xrotation Yrotation Zrotation
										JOINT mixamorig:LeftHandRing3
										{
											OFFSET 2.949982 -0.000015 0.000040
											CHANNELS 6 Xposition Yposition Zposition Xrotation Yrotation Zrotation
											JOINT mixamorig:LeftHandRing4
											{
												OFFSET 2.644348 0.000000 0.000057
												CHANNELS 6 Xposition Yposition Zposition Xrotation Yrotation Zrotation
												End Site
												{
													OFFSET 264.434631 0.000000 0.012105
												}
											}
										}
									}
								}
								JOINT mixamorig:LeftHandPinky1
								{
									OFFSET 8.077789 -0.486847 -3.806259
									CHANNELS 6 Xposition Yposition Zposition Xrotation Yrotation Zrotation
									JOINT mixamorig:LeftHandPinky2
									{
										OFFSET 3.599953 0.000031 0.014727
										CHANNELS 6 Xposition Yposition Zposition Xrotation Yrotation Zrotation
										JOINT mixamorig:LeftHandPinky3
										{
											OFFSET 2.100021 0.000015 0.007705
											CHANNELS 6 Xposition Yposition Zposition Xrotation Yrotation Zrotation
											JOINT mixamorig:LeftHandPinky4
											{
												OFFSET 2.125504 0.000031 0.007517
												CHANNELS 6 Xposition Yposition Zposition Xrotation Yrotation Zrotation
												End Site
												{
													OFFSET 212.550781 0.000000 0.625752
												}
											}
										}
									}
								}
							}
						}
					}
				}
			}
		}
	}
	JOINT mixamorig:RightUpLeg
	{
		OFFSET -8.207787 -6.751648 -1.599560
		CHANNELS 6 Xposition Yposition Zposition Xrotation Yrotation Zrotation
		JOINT mixamorig:RightLeg
		{
			OFFSET -0.000002 -44.370117 0.345942
			CHANNELS 6 Xposition Yposition Zposition Xrotation Yrotation Zrotation
			JOINT mixamorig:RightFoot
			{
				OFFSET 0.000003 -44.423679 -3.043532
				CHANNELS 6 Xposition Yposition Zposition Xrotation Yrotation Zrotation
				JOINT mixamorig:RightToeBase
				{
					OFFSET -0.000002 -8.728671 10.710558
					CHANNELS 6 Xposition Yposition Zposition Xrotation Yrotation Zrotation
					JOINT mixamorig:RightToe_End
					{
						OFFSET -0.000001 -0.000679 9.278119
						CHANNELS 6 Xposition Yposition Zposition Xrotation Yrotation Zrotation
						End Site
						{
							OFFSET 0.000000 -0.067690 927.812134
						}
					}
				}
			}
		}
	}
	JOINT mixamorig:LeftUpLeg
	{
		OFFSET 8.207793 -6.751686 -1.599556
		CHANNELS 6 Xposition Yposition Zposition Xrotation Yrotation Zrotation
		JOINT mixamorig:LeftLeg
		{
			OFFSET -0.000004 -44.370014 0.346954
			CHANNELS 6 Xposition Yposition Zposition Xrotation Yrotation Zrotation
			JOINT mixamorig:LeftFoot
			{
				OFFSET -0.000001 -44.423672 -3.044401
				CHANNELS 6 Xposition Yposition Zposition Xrotation Yrotation Zrotation
				JOINT mixamorig:LeftToeBase
				{
					OFFSET -0.000002 -8.728669 10.710558
					CHANNELS 6 Xposition Yposition Zposition Xrotation Yrotation Zrotation
					JOINT mixamorig:LeftToe_End
					{
						OFFSET -0.000003 -0.000679 9.278133
						CHANNELS 6 Xposition Yposition Zposition Xrotation Yrotation Zrotation
						End Site
						{
							OFFSET 0.000000 -0.068021 927.813477
						}
					}
				}
			}
		}
	}
}
MOTION
Frames: 3
Frame Time: 0.033333
0.000006 104.270477 1.554256 0.000010 0.000003 -0.000113 -0.000005 10.181587 0.131522 0.000001 -0.000003 0.000084 -0.000000 9.893967 -1.470711 0.000001 0.000000 -0.000000 -0.000000 9.220802 -1.370642 0.000000 -0.000000 -0.000000 0.000001 16.740433 -2.049030 0.000000 -0.000000 -0.000000 0.000000 9.617859 1.685014 0.000000 0.000000 0.000000 0.000002 22.037384 7.501101 0.000000 -0.000000 0.000000 -4.569968 11.014880 -2.160881 0.000008 0.000001 -0.000038 -10.592875 -0.524771 -2.231891 75.591677 31.388360 -24.586972 -27.841505 0.000009 0.000541 -46.022672 107.780392 60.416848 -28.328829 0.000008 0.000028 -0.000321 -0.000044 0.000007 -2.464409 -1.573886 2.682350 -37.812583 -152.462909 10.590641 -3.215252 -1.872539 1.924608 149.886015 33.559202 23.511847 -2.654964 -1.527874 1.513072 148.822814 27.287999 -30.466981 -2.018834 -1.152009 1.108052 -0.000006 -0.000003 0.000002 -9.108387 -0.517590 2.260205 113.322264 17.289488 -26.097217 -3.700066 0.000296 0.001564 107.455063 13.559077 -18.371786 -2.850087 0.000363 -0.000208 107.245165 9.933895 -13.455567 -2.772156 0.000000 -0.000017 0.000003 -0.000001 -0.000000 -9.532605 0.000248 0.000316 109.567750 18.192917 -25.764681 -3.700080 0.000316 0.004041 107.903294 13.641262 -18.532595 -2.950057 0.000341 -0.001737 107.595212 10.828413 -14.746322 -2.946639 0.000013 -0.000152 0.000001 -0.000002 -0.000000 -9.103713 -0.042780 -1.864800 107.447816 19.463386 -26.243982 -3.379358 0.000279 -0.000719 111.153385 13.187971 -19.175240 -2.889768 0.000323 0.000723 113.391386 8.417083 -12.852516 -2.638817 -0.000028 0.000943 0.000000 -0.000000 0.000000 -8.076773 -0.486407 -3.805985 93.764994 22.656554 -23.985311 -3.600069 0.000262 -0.003446 98.989433 14.258765 -16.216831 -2.100009 0.000305 -0.005437 101.349093 7.799449 -9.237518 -2.115765 -0.000055 -0.003676 0.000001 -0.000001 -0.000004 4.570446 11.014691 -2.160851 -0.000018 0.000010 -0.000021 10.592435 -0.524470 -2.232378 73.322812 -25.427701 19.065700 27.841827 0.000053 -0.000188 105.416163 -72.904585 88.251167 28.328840 -0.000030 0.000017 0.000021 -0.000088 -0.000000 2.466004 -1.576159 2.681904 -37.397465 157.321427 -12.974323 3.217801 -1.871717 1.916365 155.090428 -30.558584 2.819049 2.656086 -1.528602 1.514443 140.481719 -28.039260 38.158194 2.020888 -1.154082 1.115149 0.000004 0.000006 0.000001 9.109382 -0.517824 2.259729 92.203961 -13.762173 14.283976 3.700040 0.000171 -0.000466 90.550550 -11.329739 11.455162 2.850052 0.000218 0.000203 88.468319 -10.808901 10.524125 2.774879 -0.000031 -0.000027 -0.000001 -0.000000 0.000000 9.533473 0.000251 -0.000102 92.286135 -13.730156 14.274569 3.700039 0.000183 -0.000363 92.710536 -12.895876 13.512371 2.950052 0.000173 -0.000209 91.509338 -16.307121 16.739499 2.952866 -0.000031 0.000066 -0.000005 0.000000 -0.000000 9.104593 -0.042813 -1.865239 89.782666 -14.840715 14.787064 3.150069 0.000205 -0.000083 96.584216 -15.653045 17.537721 2.950052 0.000184 -0.000052 99.321674 -16.435435 19.304486 2.644317 0.000030 0.000057 -0.000002 -0.000000 0.000000 8.077850 -0.486732 -3.806396 72.828477 -19.217258 14.689664 3.600011 0.000172 0.014556 73.394214 -15.472031 11.956846 2.100033 0.000163 0.007542 76.261166 -13.395011 10.920960 2.125519 -0.000000 0.007516 0.000000 -0.000000 -0.000000 -8.207786 -6.751667 -1.599560 -0.077001 -0.000003 0.000080 -0.000002 -44.370110 0.345938 0.153719 -0.000000 -0.000000 0.000000 -44.423679 -3.043532 -0.076700 0.000000 -0.000002 -0.000006 -8.728667 10.710559 -0.000009 -0.000000 -0.000000 -0.000001 -0.000679 9.278123 0.000000 -0.000000 -0.000000 8.207792 -6.751710 -1.599556 -0.074518 -0.000003 0.000081 -0.000002 -44.370014 0.346960 0.148822 0.000002 0.000000 -0.000001 -44.423664 -3.044403 -0.074314 0.000000 -0.000002 -0.000004 -8.728671 10.710558 0.000007 -0.000000 -0.000000 0.000000 -0.000680 9.278137 -0.000000 0.000000 -0.000001 
0.000006 104.270477 1.554256 0.000010 0.000003 -0.000113 -0.000005 10.181587 0.131522 0.000001 -0.000003 0.000084 -0.000000 9.893967 -1.470711 0.000001 0.000000 -0.000000 -0.000000 9.220802 -1.370642 0.000000 -0.000000 -0.000000 0.000001 16.740433 -2.049030 0.000000 -0.000000 -0.000000 0.000000 9.617859 1.685014 0.000000 0.000000 0.000000 0.000002 22.037384 7.501101 0.000000 -0.000000 0.000000 -4.569968 11.014880 -2.160881 0.000008 0.000001 -0.000038 -10.592865 -0.524793 -2.231868 76.174142 37.400808 -29.715110 -27.841524 0.000018 0.000553 -43.648105 104.003693 54.279042 -28.328825 0.000010 0.000029 -0.000322 -0.000048 0.000009 -2.464391 -1.573778 2.682286 -50.717464 -161.004634 -17.096462 -3.215249 -1.872527 1.924594 147.062292 32.888276 24.551754 -2.654965 -1.527883 1.513063 148.251168 27.971839 -24.579088 -2.018834 -1.151982 1.108063 -0.000001 -0.000003 0.000002 -9.108363 -0.517553 2.260186 110.591370 13.459834 -19.404882 -3.700049 0.000320 0.001550 107.661820 10.412742 -14.178303 -2.850071 0.000381 -0.000228 106.571565 7.946667 -10.640971 -2.772149 -0.000014 -0.000020 0.000000 0.000004 0.000000 -9.532576 0.000277 0.000312 107.800445 12.600328 -17.406894 -3.700060 0.000329 0.004027 107.470315 9.693968 -13.061302 -2.950064 0.000353 -0.001740 107.338861 8.889198 -12.057804 -2.946634 0.000014 -0.000151 -0.000000 0.000000 0.000000 -9.103687 -0.042753 -1.864808 108.436978 15.218054 -20.940824 -3.379324 0.000294 -0.000719 110.620241 9.391327 -13.560109 -2.889757 0.000329 0.000723 113.985872 7.568341 -11.699037 -2.638795 -0.000013 0.000939 -0.000002 -0.000001 0.000000 -8.076763 -0.486413 -3.805971 98.999385 20.073911 -23.235858 -3.600046 0.000284 -0.003451 100.564072 9.569106 -11.073703 -2.100017 0.000321 -0.005423 103.125372 5.312563 -6.415763 -2.115757 -0.000040 -0.003673 -0.000000 -0.000002 -0.000004 4.570446 11.014691 -2.160851 -0.000018 0.000010 -0.000021 10.592444 -0.524472 -2.232397 72.390136 -29.258065 21.627123 27.841829 0.000046 -0.000191 108.400860 -75.387837 93.949409 28.328821 -0.000027 0.000022 0.000023 -0.000089 0.000001 2.466082 -1.576162 2.681902 -25.175065 158.090561 -39.136762 3.217827 -1.871782 1.916384 162.731115 -28.189444 15.813239 2.656096 -1.528680 1.514472 139.196632 -27.780828 53.028004 2.020899 -1.154050 1.115151 0.000001 0.000001 0.000002 9.109369 -0.517835 2.259740 92.630076 -17.053732 17.829440 3.700042 0.000195 -0.000464 91.292438 -11.568487 11.847584 2.850042 0.000234 0.000191 90.150902 -9.087101 9.109708 2.774870 -0.000014 -0.000026 0.000005 0.000000 0.000001 9.533463 0.000237 -0.000087 92.999084 -16.992165 17.881922 3.700046 0.000214 -0.000388 92.067426 -10.493555 10.874207 2.950071 0.000178 -0.000216 92.819682 -10.830498 11.376576 2.952886 -0.000015 0.000064 -0.000003 -0.000000 0.000001 9.104588 -0.042839 -1.865231 90.707398 -17.059769 17.270526 3.150038 0.000225 -0.000094 95.616979 -11.845682 13.059785 2.950031 0.000190 -0.000065 97.629344 -10.832227 12.370679 2.644333 0.000030 0.000057 -0.000002 -0.000000 -0.000000 8.077839 -0.486739 -3.806393 74.305205 -19.836396 15.562120 3.600010 0.000159 0.014574 76.482655 -16.655847 13.581933 2.100035 0.000178 0.007533 79.663324 -12.488873 10.836118 2.125496 0.000000 0.007515 -0.000000 0.000001 -0.000000 -8.207786 -6.751667 -1.599560 -0.077001 -0.000003 0.000080 -0.000002 -44.370110 0.345938 0.153719 -0.000000 -0.000000 0.000000 -44.423679 -3.043532 -0.076700 0.000000 -0.000002 -0.000006 -8.728667 10.710559 -0.000009 -0.000000 -0.000000 -0.000001 -0.000679 9.278123 0.000000 -0.000000 -0.000000 8.207792 -6.751710 -1.599556 -0.074518 -0.000003 0.000081 -0.000002 -44.370014 0.346960 0.148822 0.000002 0.000000 -0.000001 -44.423664 -3.044403 -0.074314 0.000000 -0.000002 -0.000004 -8.728671 10.710558 0.000007 -0.000000 -0.000000 0.000000 -0.000680 9.278137 -0.000000 0.000000 -0.000001 
0.000006 104.270477 1.554256 0.000010 0.000003 -0.000113 -0.000005 10.181587 0.131522 0.000001 -0.000003 0.000084 -0.000000 9.893967 -1.470711 0.000001 0.000000 -0.000000 -0.000000 9.220802 -1.370642 0.000000 -0.000000 -0.000000 0.000001 16.740433 -2.049030 0.000000 -0.000000 -0.000000 0.000000 9.617859 1.685014 0.000000 0.000000 0.000000 0.000002 22.037384 7.501101 0.000000 -0.000000 0.000000 -4.569968 11.014880 -2.160881 0.000008 0.000001 -0.000038 -10.592852 -0.524803 -2.231843 76.583899 42.169123 -33.861322 -27.841522 0.000004 0.000574 -42.707537 103.591082 52.831554 -28.328850 0.000020 0.000028 -0.000317 -0.000044 0.000006 -2.464393 -1.573741 2.682304 -50.843426 -162.229478 -17.505520 -3.215252 -1.872532 1.924621 147.402558 32.957845 24.306183 -2.654963 -1.527862 1.513063 148.414451 27.983299 -24.312721 -2.018823 -1.152001 1.108065 -0.000002 0.000000 0.000004 -9.108375 -0.517546 2.260174 109.586465 13.183286 -18.665548 -3.700055 0.000319 0.001547 108.629528 10.325795 -14.309753 -2.850072 0.000371 -0.000211 107.934488 8.037777 -11.032462 -2.772161 -0.000016 -0.000019 -0.000001 0.000001 -0.000001 -9.532569 0.000277 0.000288 107.742320 12.055107 -16.648175 -3.700060 0.000335 0.004027 108.578329 9.723526 -13.367943 -2.950039 0.000331 -0.001738 108.243861 9.184602 -12.664038 -2.946642 0.000014 -0.000158 -0.000000 -0.000000 0.000001 -9.103690 -0.042747 -1.864796 108.521543 14.717347 -20.287999 -3.379339 0.000290 -0.000715 111.634360 9.553750 -14.054738 -2.889779 0.000344 0.000711 114.700787 7.894185 -12.364816 -2.638808 -0.000000 0.000948 -0.000003 -0.000000 -0.000000 -8.076765 -0.486397 -3.805971 98.853704 20.169400 -23.287940 -3.600057 0.000288 -0.003464 100.516984 9.764321 -11.297558 -2.100020 0.000304 -0.005419 102.584851 5.412733 -6.478609 -2.115762 -0.000027 -0.003671 0.000000 0.000002 -0.000003 4.570446 11.014691 -2.160851 -0.000018 0.000010 -0.000021 10.592463 -0.524478 -2.232406 70.447555 -36.028001 25.861932 27.841837 0.000015 -0.000165 111.378460 -77.354986 99.105171 28.328857 -0.000027 0.000021 0.000020 -0.000089 -0.000001 2.466155 -1.576163 2.681884 -17.852711 157.156301 -51.957126 3.217853 -1.871803 1.916396 161.524576 -25.003188 30.018548 2.656091 -1.528634 1.514470 142.031161 -27.104472 48.746333 2.020887 -1.154090 1.115143 0.000003 -0.000001 0.000004 9.109382 -0.517829 2.259728 95.317735 -16.985982 18.599111 3.700042 0.000194 -0.000468 94.031727 -10.859099 11.663838 2.850050 0.000215 0.000204 92.489900 -8.675669 9.058249 2.774874 -0.000031 -0.000022 -0.000001 -0.000002 -0.000001 9.533463 0.000243 -0.000089 93.366452 -16.104001 17.055799 3.700033 0.000204 -0.000370 94.122780 -9.595197 10.305205 2.950059 0.000185 -0.000210 93.943802 -10.019422 10.732978 2.952861 -0.000045 0.000061 0.000002 -0.000002 -0.000001 9.104589 -0.042835 -1.865238 91.077847 -16.012246 16.314267 3.150058 0.000223 -0.000097 94.752373 -12.056697 13.093900 2.950036 0.000188 -0.000088 96.001055 -10.922963 12.124782 2.644325 0.000029 0.000060 0.000001 0.000000 -0.000000 8.077840 -0.486735 -3.806415 75.188990 -19.257005 15.355189 3.600026 0.000153 0.014567 76.582431 -17.633843 14.388970 2.100052 0.000174 0.007547 79.166462 -13.536220 11.616029 2.125497 -0.000017 0.007516 -0.000002 0.000001 -0.000000 -8.207786 -6.751667 -1.599560 -0.077001 -0.000003 0.000080 -0.000002 -44.370110 0.345938 0.153719 -0.000000 -0.000000 0.000000 -44.423679 -3.043532 -0.076700 0.000000 -0.000002 -0.000006 -8.728667 10.710559 -0.000009 -0.000000 -0.000000 -0.000001 -0.000679 9.278123 0.000000 -0.000000 -0.000000 8.207792 -6.751710 -1.599556 -0.074518 -0.000003 0.000081 -0.000002 -44.370014 0.346960 0.148822 0.000002 0.000000 -0.000001 -44.423664 -3.044403 -0.074314 0.000000 -0.000002 -0.000004 -8.728671 10.710558 0.000007 -0.000000 -0.000000 0.000000 -0.000680 9.278137 -0.000000 0.000000 -0.000001 
